<?xml version="1.0" encoding="UTF-8"?>
<svg xmlns="http://www.w3.org/2000/svg" viewBox="0 0 1200 675" font-family="system-ui, -apple-system, sans-serif">
  <style>
.title { font-size: 36px; font-weight: 800; fill: #0f172a; }
.subtitle { font-size: 20px; fill: #475569; font-weight: 500; }
.step-label { font-size: 16px; fill: #64748b; font-weight: 600; }
.box-text { font-size: 18px; fill: #1e293b; font-weight: 500; }
.box-text-bold { font-size: 20px; fill: #0f172a; font-weight: 700; }
.box-small { font-size: 14px; fill: #64748b; font-style: italic; }
.caption { font-size: 18px; fill: #1e293b; font-weight: 500; }
.footer { font-size: 14px; fill: #94a3b8; font-weight: 500; }
.tag { font-size: 13px; font-weight: 700; fill: #fff; }
.borrower-fill { fill: #2563eb; }
.lender-fill { fill: #059669; }
.vault-fill { fill: #7c3aed; }
.chain-fill { fill: #6b7280; }
.amount { font-size: 22px; font-weight: 800; fill: #0f172a; }
</style>
  
<defs>
  <marker id="arrow-blue" viewBox="0 0 10 10" refX="9" refY="5" markerWidth="8" markerHeight="8" orient="auto-start-reverse">
    <path d="M 0 0 L 10 5 L 0 10 z" fill="#2563eb"/>
  </marker>
  <marker id="arrow-green" viewBox="0 0 10 10" refX="9" refY="5" markerWidth="8" markerHeight="8" orient="auto-start-reverse">
    <path d="M 0 0 L 10 5 L 0 10 z" fill="#059669"/>
  </marker>
  <marker id="arrow-gray" viewBox="0 0 10 10" refX="9" refY="5" markerWidth="8" markerHeight="8" orient="auto-start-reverse">
    <path d="M 0 0 L 10 5 L 0 10 z" fill="#475569"/>
  </marker>
  <marker id="arrow-purple" viewBox="0 0 10 10" refX="9" refY="5" markerWidth="8" markerHeight="8" orient="auto-start-reverse">
    <path d="M 0 0 L 10 5 L 0 10 z" fill="#7c3aed"/>
  </marker>
</defs>

  
  <rect x="0" y="0" width="1200" height="675" fill="#f8fafc"/>
  <rect x="0" y="0" width="1200" height="80" fill="#0f172a"/>
  <text x="50" y="50" font-size="22" font-weight="700" fill="#fff">VerusLending</text>
  <text x="1150" y="50" font-size="18" fill="#94a3b8" text-anchor="end">step 2 of 8</text>
  <text x="50" y="135" class="title">The vault: derived, not registered</text>
  <text x="50" y="170" class="subtitle">Both parties compute the same address independently. No fee. No on-chain step.</text>

  
  
  <rect x="50" y="280" width="280" height="130" rx="12" fill="#fff" stroke="#2563eb" stroke-width="3"/>
  <rect x="50" y="280" width="280" height="34" rx="12" fill="#2563eb"/>
  <rect x="50" y="304" width="280" height="10" fill="#2563eb"/>
  <text x="190" y="302" text-anchor="middle" class="tag">ALICE</text>
  <text x="190" y="352" text-anchor="middle" class="box-text-bold">pubkey 03e0...9640</text>
  

  
  <rect x="870" y="280" width="280" height="130" rx="12" fill="#fff" stroke="#059669" stroke-width="3"/>
  <rect x="870" y="280" width="280" height="34" rx="12" fill="#059669"/>
  <rect x="870" y="304" width="280" height="10" fill="#059669"/>
  <text x="1010" y="302" text-anchor="middle" class="tag">BOB</text>
  <text x="1010" y="352" text-anchor="middle" class="box-text-bold">pubkey 0270...8250</text>
  

  <path d="M 330 345 L 460 345" stroke="#475569" stroke-width="2" marker-end="url(#arrow-gray)" fill="none"/>
  <path d="M 870 345 L 740 345" stroke="#475569" stroke-width="2" marker-end="url(#arrow-gray)" fill="none"/>
  
  <rect x="460" y="280" width="280" height="130" rx="12" fill="#fff" stroke="#7c3aed" stroke-width="2" stroke-dasharray="6,4"/>
  <rect x="460" y="280" width="280" height="32" rx="12" fill="#7c3aed"/>
  <text x="600" y="302" text-anchor="middle" class="tag">VAULT</text>
  <text x="600" y="342" text-anchor="middle" class="box-text-bold">2-of-2 p2sh</text>
  <text x="600" y="368" text-anchor="middle" class="box-small">bYCcAqB7KfdkfsN8YUipb...</text>

  <text x="600" y="465" text-anchor="middle" class="caption" font-weight="700">2-of-2 p2sh script hash</text>
  <text x="600" y="495" text-anchor="middle" class="caption">Either party can compute. Both must sign to spend.</text>
  <text x="600" y="525" text-anchor="middle" class="box-small">No VerusID needed. No registration tx. Zero cost.</text>

  
  <text x="600" y="650" class="footer" text-anchor="middle">github.com/Fried333/veruslending — empirically validated on Verus mainnet</text>

</svg>